# xmcd CD database file
# Copyright (C) 1997 Ti Kan
# 
# Track frame offsets:
#     150
#     15157
#     25100
#     38325
#     52115
#     65035
#     78272
#     91500
#     108007
#     121512
#     133780
#     146430
#     160145
#     173175
#     184687
#     195972
# 
# Disc length: 2768 seconds
# 
# Revision: 1
# Processed by: cddbd v1.4b41PL1 Copyright (c) Steve Scherf et al.
# Submitted via: DiscPlay 4.0.3
# 
DISCID=b40ace10
DTITLE=Marvin Gaye - Marvin Gaye Super Hits
DYEAR=1900
DGENRE=
TTITLE0=Heard It Through the Grapevine
TTITLE1=Pride and Joy
TTITLE2=The End of Our Road
TTITLE3=Ain't That Peculiar
TTITLE4=Stubborn Kind of Fellow
TTITLE5=Can I Get A Witness
TTITLE6=How Sweet It Is (To Be Loved By You)
TTITLE7=That's The Way Love Is
TTITLE8=Too Busy Thinking About My Baby
TTITLE9=Chained
TTITLE10=You're A Wonderful One
TTITLE11=Try It Baby
TTITLE12=I'll Be Doggone
TTITLE13=Hitchike
TTITLE14=You
TTITLE15=Baby Don't You Do It
EXTD=
EXTT0=
EXTT1=
EXTT2=
EXTT3=
EXTT4=
EXTT5=
EXTT6=
EXTT7=
EXTT8=
EXTT9=
EXTT10=
EXTT11=
EXTT12=
EXTT13=
EXTT14=
EXTT15=released in the sixties, but year is not \nprinted on CD\n
PLAYORDER=
